<?xml version="1.0" encoding="UTF-8" standalone="no"?>
<!-- Created with Inkscape (http://www.inkscape.org/) -->

<svg
   width="16"
   height="16"
   version="1.1"
   viewBox="0 0 4.2333 4.2333"
   id="svg7"
   sodipodi:docname="steam_multiplayer_peer_icon.svg"
   inkscape:version="1.3 (0e150ed6c4, 2023-07-21)"
   xml:space="preserve"
   inkscape:export-filename="steam_multiplayer_peer_icon.png"
   inkscape:export-xdpi="3072"
   inkscape:export-ydpi="3072"
   xmlns:inkscape="http://www.inkscape.org/namespaces/inkscape"
   xmlns:sodipodi="http://sodipodi.sourceforge.net/DTD/sodipodi-0.dtd"
   xmlns="http://www.w3.org/2000/svg"
   xmlns:svg="http://www.w3.org/2000/svg"><defs
     id="defs7" /><sodipodi:namedview
     id="namedview7"
     pagecolor="#ffffff"
     bordercolor="#000000"
     borderopacity="0.25"
     inkscape:showpageshadow="2"
     inkscape:pageopacity="0.0"
     inkscape:pagecheckerboard="0"
     inkscape:deskcolor="#d1d1d1"
     showgrid="true"
     inkscape:zoom="34.338873"
     inkscape:cx="6.7853129"
     inkscape:cy="8.8966228"
     inkscape:window-width="2560"
     inkscape:window-height="991"
     inkscape:window-x="-9"
     inkscape:window-y="-9"
     inkscape:window-maximized="1"
     inkscape:current-layer="g7"><inkscape:grid
       id="grid7"
       units="px"
       originx="0"
       originy="0"
       spacingx="0.26458125"
       spacingy="0.26458125"
       empcolor="#0099e5"
       empopacity="0.30196078"
       color="#0099e5"
       opacity="0.14901961"
       empspacing="5"
       dotted="false"
       gridanglex="30"
       gridanglez="30"
       visible="true" /></sodipodi:namedview><g
     fill="#35d4f4"
     id="g7"><rect
       x="6.2711"
       y="7.7306"
       width="0"
       height="3.1242"
       rx="2"
       ry="2"
       stroke="#fff"
       stroke-width="2"
       id="rect1" /><rect
       x="1.3545"
       y="1.419"
       stroke="#fff"
       stroke-linecap="round"
       stroke-linejoin="round"
       stroke-width=".52917"
       id="rect2" /><circle
       style="fill:#666666;stroke-width:0.264581"
       id="path7"
       cx="0.92603445"
       cy="3.3072658"
       r="0.66145319" /><path
       id="path8"
       style="fill:#666666;stroke-width:0.264581"
       d="M 3.0426844 0.26458125 A 0.92603445 0.92603445 0 0 0 2.11665 1.1906156 A 0.92603445 0.92603445 0 0 0 2.1435215 1.4030041 L 0.79374375 2.8457987 L 1.5022221 3.4395562 L 2.7770696 2.0773762 A 0.92603445 0.92603445 0 0 0 3.0426844 2.11665 A 0.92603445 0.92603445 0 0 0 3.9687187 1.1906156 A 0.92603445 0.92603445 0 0 0 3.0426844 0.26458125 z M 3.0426844 0.79374375 A 0.39687189 0.39687189 0 0 1 3.4395562 1.1906156 A 0.39687189 0.39687189 0 0 1 3.0426844 1.5874875 A 0.39687189 0.39687189 0 0 1 2.6458125 1.1906156 A 0.39687189 0.39687189 0 0 1 3.0426844 0.79374375 z " /><path
       id="rect9"
       style="fill:#666666;stroke-width:0.247994"
       d="M 1.4653321 -1.298317 L 2.2092461 -1.9574414 L 2.2090265 -2.7084123 L 1.4652729 -2.708335 L 1.4653321 -1.298317 z "
       transform="matrix(-0.66500193,0.74684164,-0.75054759,-0.6608164,0,0)" /><g
       id="g9"
       transform="matrix(0.26458125,0,0,0.26458125,0.03813794,0.26297835)"><path
         d="M 8,10 6,14 4,10 Z"
         fill="#5fff97"
         id="path1" /><path
         d="M 12,14 10,10 8,14 Z"
         fill="#ff5f5f"
         id="path2" /></g></g></svg>
